<svg width="1440" height="397" viewBox="0 0 1440 397" fill="none" xmlns="http://www.w3.org/2000/svg">
<path d="M0 0V397H692.5L1090 49L1184 117L1201 102.5L1440 301.5V166.5L1329 66L1394 0H1010.5L707.5 262.505L558 132L412 262.505L124 0H0Z" fill="#011329"/>
<path d="M1440 166.5V0H1394L1329 66L1440 166.5Z" fill="#011329"/>
<path d="M1440 166.5V0H1394L1329 66L1440 166.5Z" fill="#001638"/>
<path d="M862 397H1440V301.5L1201 102.5L1184 117L862 397Z" fill="#001638"/>
<path d="M406.5 0L558 132L715 0H406.5Z" fill="#01183A"/>
<path d="M715 0L558 132L707.5 262.505L1010.5 0H715Z" fill="#00142F"/>
<path d="M558 132L406.5 0H124L412 262.505L558 132Z" fill="#00142F"/>
<path d="M862 397L1184 117L1090 49L692.5 397H862Z" fill="#00142F"/>
</svg>
