<svg width="174" height="174" viewBox="0 0 174 174" fill="none" xmlns="http://www.w3.org/2000/svg">
<circle cx="87" cy="87" r="87" fill="white"/>
<path d="M86 30L104 59.5H96.5V97.5C98.5 110 102.5 128 149.5 137C151.5 126.833 149.4 104.3 125 95.5V66.5C124.5 55.1667 116 32 86 30Z" fill="#3E454F"/>
<path d="M39 128C49.5 127.667 76 118.5 76 99.5V76C75.9256 67.4919 76 62.5 76 59.5H68.5L86 30C56.4 32 48 55.1667 47.5 66.5V99.5C48.5 117.5 42 125.833 39 128Z" fill="#3E454F"/>
<path d="M39 128C49.5 127.667 76 118.5 76 99.5V76C75.9256 67.4919 76 62.5 76 59.5H68.5L86 30C56.4 32 48 55.1667 47.5 66.5V99.5C48.5 117.5 42 125.833 39 128Z" fill="#00A2DF"/>
<path d="M76 99.5C76 118.5 49.5 127.667 39 128C42 125.833 48.5 117.5 47.5 99.5V66.5C48 55.1667 56.4 32 86 30M76 99.5C76 90 76 90 76 76M76 99.5V76M86 30L68.5 59.5H76C76 62.5 75.9256 67.4919 76 76M86 30L104 59.5H96.5V97.5C98.5 110 102.5 128 149.5 137C151.5 126.833 149.4 104.3 125 95.5V66.5C124.5 55.1667 116 32 86 30Z" stroke="white" stroke-width="0.2"/>
</svg>
